<svg xmlns="http://www.w3.org/2000/svg" width="1005" height="600"><rect width="1005" height="600" x="0" y="0" fill="#FFFFFF" id="backgorund"/><g id="viz"><clipPath id="serieClipPath"><rect x="-50" y="-20" width="805" height="600"/></clipPath><g transform="translate(0,0)"><g transform="translate(50,20)" clip-path="url(#serieClipPath)"><g id="axis"><g transform="translate(0,560)" fill="none" font-size="10" font-family="sans-serif" text-anchor="middle"><path class="domain" stroke="currentColor" d="M0.5,6V0.5H735.5V6"/><g class="tick" opacity="1" transform="translate(0.5,0)"><line stroke="currentColor" y2="6"/><text fill="currentColor" y="9" dy="0.71em">Jan 03</text></g><g class="tick" opacity="1" transform="translate(57.03846153846154,0)"><line stroke="currentColor" y2="6"/><text fill="currentColor" y="9" dy="0.71em">Jan 10</text></g><g class="tick" opacity="1" transform="translate(113.57692307692308,0)"><line stroke="currentColor" y2="6"/><text fill="currentColor" y="9" dy="0.71em">Jan 17</text></g><g class="tick" opacity="1" transform="translate(170.1153846153846,0)"><line stroke="currentColor" y2="6"/><text fill="currentColor" y="9" dy="0.71em">Jan 24</text></g><g class="tick" opacity="1" transform="translate(226.65384615384616,0)"><line stroke="currentColor" y2="6"/><text fill="currentColor" y="9" dy="0.71em">Jan 31</text></g><g class="tick" opacity="1" transform="translate(283.19230769230774,0)"><line stroke="currentColor" y2="6"/><text fill="currentColor" y="9" dy="0.71em">Feb 07</text></g><g class="tick" opacity="1" transform="translate(339.7307692307692,0)"><line stroke="currentColor" y2="6"/><text fill="currentColor" y="9" dy="0.71em">Feb 14</text></g><g class="tick" opacity="1" transform="translate(396.2692307692308,0)"><line stroke="currentColor" y2="6"/><text fill="currentColor" y="9" dy="0.71em">Feb 21</text></g><g class="tick" opacity="1" transform="translate(452.8076923076923,0)"><line stroke="currentColor" y2="6"/><text fill="currentColor" y="9" dy="0.71em">Feb 28</text></g><g class="tick" opacity="1" transform="translate(509.3461538461538,0)"><line stroke="currentColor" y2="6"/><text fill="currentColor" y="9" dy="0.71em">Mar 06</text></g><g class="tick" opacity="1" transform="translate(565.8846153846155,0)"><line stroke="currentColor" y2="6"/><text fill="currentColor" y="9" dy="0.71em">Mar 13</text></g><g class="tick" opacity="1" transform="translate(622.4230769230769,0)"><line stroke="currentColor" y2="6"/><text fill="currentColor" y="9" dy="0.71em">Mar 20</text></g><g class="tick" opacity="1" transform="translate(678.9615384615385,0)"><line stroke="currentColor" y2="6"/><text fill="currentColor" y="9" dy="0.71em">Mar 27</text></g><g class="tick" opacity="1" transform="translate(735.5,0)"><line stroke="currentColor" y2="6"/><text fill="currentColor" y="9" dy="0.71em">Apr 03</text></g><text x="735" dy="-5" text-anchor="end" style="font-family: Arial, sans-serif; font-size: 12px; fill: rgb(123, 123, 123); font-weight: bold;">日期 </text></g><g transform="translate(0,0)" fill="none" font-size="10" font-family="sans-serif" text-anchor="end"><path class="domain" stroke="currentColor" d="M0.5,560.5V0.5"/><g class="tick" opacity="1" transform="translate(0,560.5)"><line stroke="currentColor" x2="-6"/><text fill="currentColor" x="-9" dy="0.32em">440</text></g><g class="tick" opacity="1" transform="translate(0,509.59090909090907)"><line stroke="currentColor" x2="-6"/><text fill="currentColor" x="-9" dy="0.32em">450</text></g><g class="tick" opacity="1" transform="translate(0,458.68181818181813)"><line stroke="currentColor" x2="-6"/><text fill="currentColor" x="-9" dy="0.32em">460</text></g><g class="tick" opacity="1" transform="translate(0,407.7727272727273)"><line stroke="currentColor" x2="-6"/><text fill="currentColor" x="-9" dy="0.32em">470</text></g><g class="tick" opacity="1" transform="translate(0,356.8636363636364)"><line stroke="currentColor" x2="-6"/><text fill="currentColor" x="-9" dy="0.32em">480</text></g><g class="tick" opacity="1" transform="translate(0,305.95454545454544)"><line stroke="currentColor" x2="-6"/><text fill="currentColor" x="-9" dy="0.32em">490</text></g><g class="tick" opacity="1" transform="translate(0,255.04545454545456)"><line stroke="currentColor" x2="-6"/><text fill="currentColor" x="-9" dy="0.32em">500</text></g><g class="tick" opacity="1" transform="translate(0,204.13636363636365)"><line stroke="currentColor" x2="-6"/><text fill="currentColor" x="-9" dy="0.32em">510</text></g><g class="tick" opacity="1" transform="translate(0,153.22727272727272)"><line stroke="currentColor" x2="-6"/><text fill="currentColor" x="-9" dy="0.32em">520</text></g><g class="tick" opacity="1" transform="translate(0,102.31818181818178)"><line stroke="currentColor" x2="-6"/><text fill="currentColor" x="-9" dy="0.32em">530</text></g><g class="tick" opacity="1" transform="translate(0,51.40909090909093)"><line stroke="currentColor" x2="-6"/><text fill="currentColor" x="-9" dy="0.32em">540</text></g><g class="tick" opacity="1" transform="translate(0,0.5)"><line stroke="currentColor" x2="-6"/><text fill="currentColor" x="-9" dy="0.32em">550</text></g><text x="4" text-anchor="start" dominant-baseline="hanging" style="font-family: Arial, sans-serif; font-size: 12px; fill: rgb(123, 123, 123); font-weight: bold;">收盤價</text></g></g><g id="viz"><g><path d="M0,493.8181818181818L1.3461538461538465,496.78787878787875C2.692307692307693,499.75757575757575,5.384615384615386,505.6969696969697,8.076923076923078,501.03030303030306C10.769230769230772,496.3636363636363,13.461538461538465,481.09090909090907,16.153846153846157,473.4545454545455C18.84615384615385,465.8181818181818,21.538461538461537,465.8181818181818,26.923076923076923,446.7272727272727C32.30769230769231,427.6363636363637,40.38461538461538,389.45454545454544,45.76923076923077,366.12121212121207C51.15384615384615,342.78787878787875,53.84615384615385,334.3030303030303,56.53846153846155,331.3333333333333C59.23076923076923,328.3636363636363,61.923076923076934,330.90909090909093,64.61538461538463,330.48484848484844C67.30769230769232,330.06060606060606,70,326.6666666666667,72.6923076923077,313.5151515151515C75.38461538461539,300.3636363636363,78.07692307692308,277.45454545454544,83.46153846153847,261.75757575757575C88.84615384615385,246.0606060606061,96.92307692307692,237.5757575757576,102.3076923076923,235.030303030303C107.6923076923077,232.48484848484847,110.3846153846154,235.87878787878785,129.23076923076925,203.6363636363636C148.07692307692307,171.39393939393938,183.07692307692307,103.5151515151515,201.9230769230769,87.39393939393938C220.76923076923075,71.27272727272725,223.46153846153845,106.90909090909089,226.15384615384616,117.93939393939392C228.84615384615384,128.96969696969697,231.53846153846155,115.39393939393938,234.23076923076925,100.12121212121208C236.9230769230769,84.84848484848483,239.6153846153846,67.87878787878788,242.3076923076923,57.69696969696971C245,47.51515151515153,247.6923076923077,44.12121212121213,253.0769230769231,56.00000000000001C258.4615384615385,67.87878787878788,266.53846153846155,95.03030303030302,271.92307692307696,111.15151515151514C277.3076923076923,127.27272727272725,280.00000000000006,132.36363636363637,282.69230769230774,120.48484848484848C285.3846153846154,108.60606060606062,288.0769230769231,79.75757575757576,290.7692307692308,65.33333333333336C293.4615384615385,50.90909090909093,296.1538461538462,50.90909090909093,298.84615384615387,46.66666666666668C301.5384615384616,42.42424242424243,304.2307692307693,33.93939393939393,309.61538461538464,33.09090909090907C315.00000000000006,32.24242424242422,323.0769230769231,39.03030303030301,328.4615384615385,39.03030303030301C333.84615384615387,39.03030303030301,336.53846153846155,32.24242424242422,339.2307692307692,45.81818181818179C341.9230769230769,59.39393939393938,344.6153846153846,93.33333333333333,347.3076923076923,107.75757575757575C350,122.18181818181817,352.6923076923077,117.09090909090908,355.3846153846154,123.030303030303C358.0769230769231,128.96969696969697,360.7692307692308,145.9393939393939,366.1538461538462,155.27272727272728C371.5384615384615,164.60606060606062,379.6153846153846,166.30303030303034,385,168.00000000000003C390.3846153846154,169.69696969696972,393.0769230769231,171.3939393939394,395.7692307692308,179.87878787878788C398.4615384615385,188.36363636363635,401.1538461538462,203.63636363636363,403.8461538461538,201.9393939393939C406.5384615384616,200.24242424242422,409.2307692307692,181.5757575757576,411.9230769230769,178.18181818181816C414.6153846153846,174.78787878787875,417.3076923076923,186.66666666666663,426.7307692307693,183.27272727272725C436.1538461538462,179.87878787878785,452.3076923076923,161.2121212121212,461.7307692307692,154.4242424242424C471.1538461538462,147.63636363636363,473.8461538461538,152.72727272727275,476.5384615384616,157.81818181818184C479.2307692307692,162.9090909090909,481.9230769230769,168,487.3076923076923,166.3030303030303C492.6923076923076,164.60606060606062,500.7692307692307,156.12121212121212,506.1538461538462,149.33333333333334C511.5384615384616,142.54545454545453,514.2307692307693,137.45454545454547,516.923076923077,137.45454545454544C519.6153846153846,137.45454545454547,522.3076923076924,142.54545454545453,525,144.24242424242425C527.6923076923077,145.93939393939397,530.3846153846154,144.24242424242425,533.0769230769231,151.03030303030303C535.7692307692308,157.81818181818178,538.4615384615385,173.0909090909091,543.8461538461538,178.18181818181816C549.2307692307693,183.27272727272725,557.3076923076924,178.18181818181816,562.6923076923077,180.72727272727275C568.0769230769232,183.27272727272728,570.7692307692308,193.45454545454547,573.4615384615385,197.69696969696972C576.1538461538462,201.9393939393939,578.8461538461538,200.24242424242422,581.5384615384615,204.48484848484847C584.2307692307692,208.72727272727266,586.923076923077,218.90909090909088,589.6153846153846,212.96969696969697C592.3076923076924,207.030303030303,595,184.96969696969697,600.3846153846154,179.03030303030303C605.7692307692308,173.0909090909091,613.8461538461538,183.27272727272728,619.2307692307692,184.12121212121212C624.6153846153846,184.969696969697,627.3076923076923,176.4848484848485,630,158.66666666666669C632.6923076923077,140.84848484848487,635.3846153846154,113.6969696969697,638.0769230769231,95.87878787878789C640.7692307692308,78.06060606060606,643.4615384615385,69.57575757575758,646.1538461538461,64.4848484848485C648.8461538461538,59.3939393939394,651.5384615384615,57.69696969696969,656.9230769230769,63.63636363636363C662.3076923076923,69.57575757575756,670.3846153846154,83.15151515151514,675.7692307692307,95.03030303030305C681.1538461538462,106.90909090909092,683.8461538461538,117.09090909090911,686.5384615384615,117.93939393939394C689.2307692307692,118.7878787878788,691.923076923077,110.3030303030303,693.2692307692308,106.06060606060602L694.6153846153846,101.81818181818178" stroke="#1f77b4" fill="none"/><text font-family="sans-serif" font-size="10" class="labels" x="306.92307692307696" y="25.454545454545432" dx="0" dy="-4" text-anchor="middle"/></g></g></g><text y="4" x="4" style="font-family: Arial, sans-serif; font-size: 12px; fill: black; font-weight: bold; dominant-baseline: hanging;"/></g><g id="grid"><rect x="0" y="0" width="805" height="600" fill="none" stroke="#ccc"/></g></g><g id="legend" transform="translate(805,20)"><g transform="translate(5,0)"/></g></svg>